<mxfile host="app.diagrams.net" modified="2022-10-26T03:10:10.691Z" agent="5.0 (Windows NT 6.1; Win64; x64) AppleWebKit/537.36 (KHTML, like Gecko) Chrome/106.0.0.0 Safari/537.36" etag="ffXFffewO_DE63Ed1ULX" version="20.5.1" type="github">
  <diagram id="X0-Q3UgyOkLvdQDbUND6" name="第 1 页">
    <mxGraphModel dx="1108" dy="450" grid="1" gridSize="10" guides="1" tooltips="1" connect="1" arrows="1" fold="1" page="1" pageScale="1" pageWidth="827" pageHeight="1169" math="0" shadow="0">
      <root>
        <mxCell id="0" />
        <mxCell id="1" parent="0" />
        <mxCell id="2W0OFrPBYEMKjF1ASu4q-1" value="告警上传通道流程" style="swimlane;childLayout=stackLayout;resizeParent=1;resizeParentMax=0;startSize=20;" vertex="1" parent="1">
          <mxGeometry x="210" y="60" width="450" height="600" as="geometry" />
        </mxCell>
        <mxCell id="2W0OFrPBYEMKjF1ASu4q-2" value="客户端" style="swimlane;startSize=20;" vertex="1" parent="2W0OFrPBYEMKjF1ASu4q-1">
          <mxGeometry y="20" width="150" height="580" as="geometry" />
        </mxCell>
        <mxCell id="2W0OFrPBYEMKjF1ASu4q-6" value="客户安装运通Agent" style="rounded=1;whiteSpace=wrap;html=1;" vertex="1" parent="2W0OFrPBYEMKjF1ASu4q-2">
          <mxGeometry x="15" y="130" width="120" height="60" as="geometry" />
        </mxCell>
        <mxCell id="2W0OFrPBYEMKjF1ASu4q-3" value="MSS安全云服务平台" style="swimlane;startSize=20;" vertex="1" parent="2W0OFrPBYEMKjF1ASu4q-1">
          <mxGeometry x="150" y="20" width="160" height="580" as="geometry" />
        </mxCell>
        <mxCell id="2W0OFrPBYEMKjF1ASu4q-8" value="获取云通Agent安装命令" style="rounded=1;whiteSpace=wrap;html=1;" vertex="1" parent="2W0OFrPBYEMKjF1ASu4q-3">
          <mxGeometry x="20" y="40" width="120" height="60" as="geometry" />
        </mxCell>
        <mxCell id="2W0OFrPBYEMKjF1ASu4q-4" value="Lane 3" style="swimlane;startSize=20;" vertex="1" parent="2W0OFrPBYEMKjF1ASu4q-1">
          <mxGeometry x="310" y="20" width="140" height="580" as="geometry" />
        </mxCell>
        <mxCell id="2W0OFrPBYEMKjF1ASu4q-10" style="edgeStyle=orthogonalEdgeStyle;curved=1;rounded=0;orthogonalLoop=1;jettySize=auto;html=1;entryX=1;entryY=0.5;entryDx=0;entryDy=0;exitX=0.5;exitY=1;exitDx=0;exitDy=0;" edge="1" parent="2W0OFrPBYEMKjF1ASu4q-1" source="2W0OFrPBYEMKjF1ASu4q-8" target="2W0OFrPBYEMKjF1ASu4q-6">
          <mxGeometry relative="1" as="geometry" />
        </mxCell>
        <mxCell id="2W0OFrPBYEMKjF1ASu4q-11" style="edgeStyle=orthogonalEdgeStyle;curved=1;rounded=0;orthogonalLoop=1;jettySize=auto;html=1;entryX=0;entryY=0.5;entryDx=0;entryDy=0;" edge="1" parent="1" source="2W0OFrPBYEMKjF1ASu4q-5" target="2W0OFrPBYEMKjF1ASu4q-6">
          <mxGeometry relative="1" as="geometry" />
        </mxCell>
        <mxCell id="2W0OFrPBYEMKjF1ASu4q-5" value="Actor" style="shape=umlActor;verticalLabelPosition=bottom;verticalAlign=top;html=1;outlineConnect=0;" vertex="1" parent="1">
          <mxGeometry x="130" y="210" width="30" height="60" as="geometry" />
        </mxCell>
      </root>
    </mxGraphModel>
  </diagram>
</mxfile>
